<svg viewBox="0 0 45 45" width="256" height="256" fill="#000" shape-rendering="crispEdges" xmlns="http://www.w3.org/2000/svg" version="1.1"><path transform="matrix(1,0,0,1,4,4)" d="M34,36h3v1h-3v-1zM31,36h2v1h-2v-1zM29,36h1v1h-1v-1zM25,36h2v1h-2v-1zM22,36h1v1h-1v-1zM17,36h1v1h-1v-1zM13,36h1v1h-1v-1zM11,36h1v1h-1v-1zM8,36h1v1h-1v-1zM0,36h7v1h-7v-1zM36,35h1v1h-1v-1zM31,35h2v1h-2v-1zM28,35h2v1h-2v-1zM26,35h1v1h-1v-1zM23,35h2v1h-2v-1zM21,35h1v1h-1v-1zM18,35h1v1h-1v-1zM16,35h1v1h-1v-1zM12,35h2v1h-2v-1zM10,35h1v1h-1v-1zM6,35h1v1h-1v-1zM0,35h1v1h-1v-1zM35,34h2v1h-2v-1zM33,34h1v1h-1v-1zM29,34h1v1h-1v-1zM25,34h3v1h-3v-1zM22,34h1v1h-1v-1zM17,34h1v1h-1v-1zM14,34h1v1h-1v-1zM12,34h1v1h-1v-1zM10,34h1v1h-1v-1zM8,34h1v1h-1v-1zM6,34h1v1h-1v-1zM2,34h3v1h-3v-1zM0,34h1v1h-1v-1zM36,33h1v1h-1v-1zM32,33h1v1h-1v-1zM30,33h1v1h-1v-1zM22,33h5v1h-5v-1zM15,33h2v1h-2v-1zM11,33h3v1h-3v-1zM8,33h1v1h-1v-1zM6,33h1v1h-1v-1zM2,33h3v1h-3v-1zM0,33h1v1h-1v-1zM36,32h1v1h-1v-1zM27,32h8v1h-8v-1zM25,32h1v1h-1v-1zM18,32h1v1h-1v-1zM13,32h2v1h-2v-1zM8,32h3v1h-3v-1zM6,32h1v1h-1v-1zM2,32h3v1h-3v-1zM0,32h1v1h-1v-1zM35,31h2v1h-2v-1zM32,31h2v1h-2v-1zM27,31h2v1h-2v-1zM24,31h1v1h-1v-1zM19,31h4v1h-4v-1zM16,31h1v1h-1v-1zM13,31h1v1h-1v-1zM8,31h1v1h-1v-1zM6,31h1v1h-1v-1zM0,31h1v1h-1v-1zM32,30h5v1h-5v-1zM30,30h1v1h-1v-1zM28,30h1v1h-1v-1zM24,30h3v1h-3v-1zM20,30h2v1h-2v-1zM18,30h1v1h-1v-1zM14,30h3v1h-3v-1zM9,30h4v1h-4v-1zM0,30h7v1h-7v-1zM32,29h3v1h-3v-1zM28,29h1v1h-1v-1zM23,29h1v1h-1v-1zM20,29h2v1h-2v-1zM16,29h1v1h-1v-1zM8,29h7v1h-7v-1zM34,28h1v1h-1v-1zM27,28h6v1h-6v-1zM24,28h2v1h-2v-1zM22,28h1v1h-1v-1zM19,28h2v1h-2v-1zM15,28h3v1h-3v-1zM11,28h2v1h-2v-1zM9,28h1v1h-1v-1zM5,28h3v1h-3v-1zM2,28h1v1h-1v-1zM0,28h1v1h-1v-1zM36,27h1v1h-1v-1zM32,27h1v1h-1v-1zM26,27h3v1h-3v-1zM19,27h4v1h-4v-1zM15,27h1v1h-1v-1zM12,27h2v1h-2v-1zM10,27h1v1h-1v-1zM8,27h1v1h-1v-1zM5,27h1v1h-1v-1zM3,27h1v1h-1v-1zM0,27h1v1h-1v-1zM35,26h2v1h-2v-1zM31,26h1v1h-1v-1zM26,26h4v1h-4v-1zM24,26h1v1h-1v-1zM21,26h1v1h-1v-1zM19,26h1v1h-1v-1zM15,26h3v1h-3v-1zM13,26h1v1h-1v-1zM10,26h1v1h-1v-1zM4,26h5v1h-5v-1zM0,26h1v1h-1v-1zM33,25h2v1h-2v-1zM28,25h2v1h-2v-1zM26,25h1v1h-1v-1zM23,25h2v1h-2v-1zM20,25h1v1h-1v-1zM17,25h2v1h-2v-1zM15,25h1v1h-1v-1zM10,25h4v1h-4v-1zM7,25h1v1h-1v-1zM3,25h2v1h-2v-1zM0,25h1v1h-1v-1zM36,24h1v1h-1v-1zM34,24h1v1h-1v-1zM32,24h1v1h-1v-1zM30,24h1v1h-1v-1zM27,24h2v1h-2v-1zM25,24h1v1h-1v-1zM22,24h2v1h-2v-1zM15,24h2v1h-2v-1zM13,24h1v1h-1v-1zM6,24h6v1h-6v-1zM1,24h3v1h-3v-1zM35,23h1v1h-1v-1zM30,23h4v1h-4v-1zM28,23h1v1h-1v-1zM26,23h1v1h-1v-1zM24,23h1v1h-1v-1zM21,23h1v1h-1v-1zM14,23h6v1h-6v-1zM12,23h1v1h-1v-1zM10,23h1v1h-1v-1zM8,23h1v1h-1v-1zM4,23h2v1h-2v-1zM0,23h1v1h-1v-1zM35,22h2v1h-2v-1zM30,22h4v1h-4v-1zM27,22h1v1h-1v-1zM24,22h2v1h-2v-1zM20,22h1v1h-1v-1zM17,22h1v1h-1v-1zM15,22h1v1h-1v-1zM12,22h2v1h-2v-1zM5,22h6v1h-6v-1zM3,22h1v1h-1v-1zM35,21h1v1h-1v-1zM33,21h1v1h-1v-1zM26,21h1v1h-1v-1zM23,21h1v1h-1v-1zM16,21h6v1h-6v-1zM7,21h5v1h-5v-1zM5,21h1v1h-1v-1zM2,21h1v1h-1v-1zM0,21h1v1h-1v-1zM30,20h5v1h-5v-1zM27,20h2v1h-2v-1zM25,20h1v1h-1v-1zM22,20h1v1h-1v-1zM20,20h1v1h-1v-1zM17,20h2v1h-2v-1zM14,20h1v1h-1v-1zM6,20h1v1h-1v-1zM2,20h2v1h-2v-1zM36,19h1v1h-1v-1zM31,19h2v1h-2v-1zM27,19h2v1h-2v-1zM23,19h1v1h-1v-1zM21,19h1v1h-1v-1zM16,19h1v1h-1v-1zM14,19h1v1h-1v-1zM9,19h2v1h-2v-1zM5,19h1v1h-1v-1zM0,19h4v1h-4v-1zM32,18h5v1h-5v-1zM30,18h1v1h-1v-1zM26,18h3v1h-3v-1zM24,18h1v1h-1v-1zM20,18h3v1h-3v-1zM12,18h3v1h-3v-1zM5,18h5v1h-5v-1zM0,18h1v1h-1v-1zM35,17h1v1h-1v-1zM31,17h1v1h-1v-1zM28,17h2v1h-2v-1zM26,17h1v1h-1v-1zM21,17h4v1h-4v-1zM15,17h3v1h-3v-1zM13,17h1v1h-1v-1zM10,17h2v1h-2v-1zM5,17h1v1h-1v-1zM0,17h1v1h-1v-1zM34,16h3v1h-3v-1zM29,16h4v1h-4v-1zM25,16h1v1h-1v-1zM18,16h3v1h-3v-1zM15,16h1v1h-1v-1zM13,16h1v1h-1v-1zM10,16h1v1h-1v-1zM8,16h1v1h-1v-1zM6,16h1v1h-1v-1zM0,16h3v1h-3v-1zM36,15h1v1h-1v-1zM30,15h1v1h-1v-1zM27,15h1v1h-1v-1zM24,15h1v1h-1v-1zM21,15h1v1h-1v-1zM15,15h2v1h-2v-1zM10,15h4v1h-4v-1zM7,15h1v1h-1v-1zM3,15h2v1h-2v-1zM0,15h1v1h-1v-1zM35,14h2v1h-2v-1zM33,14h1v1h-1v-1zM31,14h1v1h-1v-1zM24,14h4v1h-4v-1zM22,14h1v1h-1v-1zM20,14h1v1h-1v-1zM18,14h1v1h-1v-1zM15,14h2v1h-2v-1zM6,14h6v1h-6v-1zM1,14h2v1h-2v-1zM29,13h1v1h-1v-1zM26,13h1v1h-1v-1zM18,13h7v1h-7v-1zM15,13h2v1h-2v-1zM10,13h3v1h-3v-1zM8,13h1v1h-1v-1zM2,13h1v1h-1v-1zM34,12h3v1h-3v-1zM30,12h3v1h-3v-1zM24,12h2v1h-2v-1zM22,12h1v1h-1v-1zM19,12h2v1h-2v-1zM17,12h1v1h-1v-1zM14,12h2v1h-2v-1zM8,12h5v1h-5v-1zM2,12h5v1h-5v-1zM0,12h1v1h-1v-1zM36,11h1v1h-1v-1zM29,11h2v1h-2v-1zM27,11h1v1h-1v-1zM19,11h6v1h-6v-1zM15,11h1v1h-1v-1zM7,11h7v1h-7v-1zM2,11h4v1h-4v-1zM35,10h2v1h-2v-1zM25,10h4v1h-4v-1zM22,10h1v1h-1v-1zM19,10h1v1h-1v-1zM15,10h2v1h-2v-1zM10,10h1v1h-1v-1zM4,10h5v1h-5v-1zM1,10h1v1h-1v-1zM33,9h3v1h-3v-1zM31,9h1v1h-1v-1zM28,9h1v1h-1v-1zM22,9h5v1h-5v-1zM20,9h1v1h-1v-1zM18,9h1v1h-1v-1zM13,9h3v1h-3v-1zM10,9h2v1h-2v-1zM7,9h1v1h-1v-1zM2,9h2v1h-2v-1zM0,9h1v1h-1v-1zM30,8h5v1h-5v-1zM25,8h1v1h-1v-1zM23,8h1v1h-1v-1zM16,8h1v1h-1v-1zM13,8h2v1h-2v-1zM10,8h2v1h-2v-1zM2,8h5v1h-5v-1zM0,8h1v1h-1v-1zM28,7h1v1h-1v-1zM26,7h1v1h-1v-1zM21,7h3v1h-3v-1zM16,7h4v1h-4v-1zM11,7h4v1h-4v-1zM8,7h2v1h-2v-1zM30,6h7v1h-7v-1zM28,6h1v1h-1v-1zM26,6h1v1h-1v-1zM24,6h1v1h-1v-1zM22,6h1v1h-1v-1zM20,6h1v1h-1v-1zM18,6h1v1h-1v-1zM16,6h1v1h-1v-1zM14,6h1v1h-1v-1zM12,6h1v1h-1v-1zM10,6h1v1h-1v-1zM8,6h1v1h-1v-1zM0,6h7v1h-7v-1zM36,5h1v1h-1v-1zM30,5h1v1h-1v-1zM26,5h2v1h-2v-1zM22,5h1v1h-1v-1zM20,5h1v1h-1v-1zM17,5h1v1h-1v-1zM12,5h3v1h-3v-1zM8,5h2v1h-2v-1zM6,5h1v1h-1v-1zM0,5h1v1h-1v-1zM36,4h1v1h-1v-1zM32,4h3v1h-3v-1zM30,4h1v1h-1v-1zM25,4h1v1h-1v-1zM23,4h1v1h-1v-1zM17,4h5v1h-5v-1zM11,4h2v1h-2v-1zM8,4h1v1h-1v-1zM6,4h1v1h-1v-1zM2,4h3v1h-3v-1zM0,4h1v1h-1v-1zM36,3h1v1h-1v-1zM32,3h3v1h-3v-1zM30,3h1v1h-1v-1zM27,3h2v1h-2v-1zM25,3h1v1h-1v-1zM22,3h2v1h-2v-1zM20,3h1v1h-1v-1zM17,3h1v1h-1v-1zM11,3h4v1h-4v-1zM8,3h2v1h-2v-1zM6,3h1v1h-1v-1zM2,3h3v1h-3v-1zM0,3h1v1h-1v-1zM36,2h1v1h-1v-1zM32,2h3v1h-3v-1zM30,2h1v1h-1v-1zM27,2h2v1h-2v-1zM24,2h1v1h-1v-1zM21,2h1v1h-1v-1zM18,2h1v1h-1v-1zM8,2h9v1h-9v-1zM6,2h1v1h-1v-1zM2,2h3v1h-3v-1zM0,2h1v1h-1v-1zM36,1h1v1h-1v-1zM30,1h1v1h-1v-1zM27,1h1v1h-1v-1zM24,1h1v1h-1v-1zM22,1h1v1h-1v-1zM20,1h1v1h-1v-1zM15,1h2v1h-2v-1zM13,1h1v1h-1v-1zM9,1h3v1h-3v-1zM6,1h1v1h-1v-1zM0,1h1v1h-1v-1zM30,0h7v1h-7v-1zM26,0h1v1h-1v-1zM21,0h4v1h-4v-1zM16,0h1v1h-1v-1zM13,0h2v1h-2v-1zM9,0h3v1h-3v-1zM0,0h7v1h-7v-1z"/></svg>