<svg viewBox="0 0 29 29" width="256" height="256" fill="#000" shape-rendering="crispEdges" xmlns="http://www.w3.org/2000/svg" version="1.1"><path transform="matrix(1,0,0,1,4,4)" d="M20,20h1v1h-1v-1zM14,20h2v1h-2v-1zM12,20h1v1h-1v-1zM9,20h2v1h-2v-1zM0,20h7v1h-7v-1zM16,19h1v1h-1v-1zM13,19h1v1h-1v-1zM9,19h1v1h-1v-1zM6,19h1v1h-1v-1zM0,19h1v1h-1v-1zM15,18h6v1h-6v-1zM10,18h3v1h-3v-1zM8,18h1v1h-1v-1zM6,18h1v1h-1v-1zM2,18h3v1h-3v-1zM0,18h1v1h-1v-1zM16,17h1v1h-1v-1zM9,17h3v1h-3v-1zM6,17h1v1h-1v-1zM2,17h3v1h-3v-1zM0,17h1v1h-1v-1zM20,16h1v1h-1v-1zM12,16h3v1h-3v-1zM6,16h1v1h-1v-1zM2,16h3v1h-3v-1zM0,16h1v1h-1v-1zM19,15h2v1h-2v-1zM15,15h3v1h-3v-1zM13,15h1v1h-1v-1zM10,15h1v1h-1v-1zM8,15h1v1h-1v-1zM6,15h1v1h-1v-1zM0,15h1v1h-1v-1zM20,14h1v1h-1v-1zM15,14h4v1h-4v-1zM8,14h4v1h-4v-1zM0,14h7v1h-7v-1zM20,13h1v1h-1v-1zM16,13h2v1h-2v-1zM12,13h1v1h-1v-1zM8,13h3v1h-3v-1zM19,12h1v1h-1v-1zM13,12h2v1h-2v-1zM11,12h1v1h-1v-1zM5,12h2v1h-2v-1zM1,12h2v1h-2v-1zM14,11h4v1h-4v-1zM8,11h3v1h-3v-1zM3,11h1v1h-1v-1zM0,11h1v1h-1v-1zM20,10h1v1h-1v-1zM13,10h6v1h-6v-1zM11,10h1v1h-1v-1zM9,10h1v1h-1v-1zM6,10h2v1h-2v-1zM4,10h1v1h-1v-1zM1,10h1v1h-1v-1zM19,9h2v1h-2v-1zM17,9h1v1h-1v-1zM11,9h2v1h-2v-1zM5,9h1v1h-1v-1zM3,9h1v1h-1v-1zM0,9h1v1h-1v-1zM15,8h5v1h-5v-1zM13,8h1v1h-1v-1zM5,8h4v1h-4v-1zM2,8h1v1h-1v-1zM9,7h4v1h-4v-1zM14,6h7v1h-7v-1zM12,6h1v1h-1v-1zM10,6h1v1h-1v-1zM8,6h1v1h-1v-1zM0,6h7v1h-7v-1zM20,5h1v1h-1v-1zM14,5h1v1h-1v-1zM11,5h2v1h-2v-1zM8,5h2v1h-2v-1zM6,5h1v1h-1v-1zM0,5h1v1h-1v-1zM20,4h1v1h-1v-1zM16,4h3v1h-3v-1zM14,4h1v1h-1v-1zM8,4h5v1h-5v-1zM6,4h1v1h-1v-1zM2,4h3v1h-3v-1zM0,4h1v1h-1v-1zM20,3h1v1h-1v-1zM16,3h3v1h-3v-1zM14,3h1v1h-1v-1zM11,3h1v1h-1v-1zM8,3h1v1h-1v-1zM6,3h1v1h-1v-1zM2,3h3v1h-3v-1zM0,3h1v1h-1v-1zM20,2h1v1h-1v-1zM16,2h3v1h-3v-1zM14,2h1v1h-1v-1zM8,2h4v1h-4v-1zM6,2h1v1h-1v-1zM2,2h3v1h-3v-1zM0,2h1v1h-1v-1zM20,1h1v1h-1v-1zM14,1h1v1h-1v-1zM12,1h1v1h-1v-1zM8,1h2v1h-2v-1zM6,1h1v1h-1v-1zM0,1h1v1h-1v-1zM14,0h7v1h-7v-1zM11,0h1v1h-1v-1zM9,0h1v1h-1v-1zM0,0h7v1h-7v-1z"/></svg>