<svg viewBox="0 0 45 45" width="256" height="256" fill="#000" shape-rendering="crispEdges" xmlns="http://www.w3.org/2000/svg" version="1.1"><path transform="matrix(1,0,0,1,4,4)" d="M33,36h4v1h-4v-1zM29,36h1v1h-1v-1zM27,36h1v1h-1v-1zM19,36h4v1h-4v-1zM17,36h1v1h-1v-1zM14,36h2v1h-2v-1zM8,36h2v1h-2v-1zM0,36h7v1h-7v-1zM34,35h2v1h-2v-1zM30,35h3v1h-3v-1zM26,35h1v1h-1v-1zM20,35h3v1h-3v-1zM17,35h1v1h-1v-1zM13,35h1v1h-1v-1zM6,35h1v1h-1v-1zM0,35h1v1h-1v-1zM33,34h2v1h-2v-1zM30,34h1v1h-1v-1zM23,34h6v1h-6v-1zM18,34h1v1h-1v-1zM16,34h1v1h-1v-1zM14,34h1v1h-1v-1zM11,34h1v1h-1v-1zM6,34h1v1h-1v-1zM2,34h3v1h-3v-1zM0,34h1v1h-1v-1zM36,33h1v1h-1v-1zM33,33h1v1h-1v-1zM30,33h2v1h-2v-1zM27,33h1v1h-1v-1zM23,33h2v1h-2v-1zM19,33h3v1h-3v-1zM16,33h1v1h-1v-1zM11,33h2v1h-2v-1zM9,33h1v1h-1v-1zM6,33h1v1h-1v-1zM2,33h3v1h-3v-1zM0,33h1v1h-1v-1zM36,32h1v1h-1v-1zM34,32h1v1h-1v-1zM28,32h5v1h-5v-1zM26,32h1v1h-1v-1zM18,32h5v1h-5v-1zM13,32h3v1h-3v-1zM10,32h1v1h-1v-1zM8,32h1v1h-1v-1zM6,32h1v1h-1v-1zM2,32h3v1h-3v-1zM0,32h1v1h-1v-1zM32,31h3v1h-3v-1zM27,31h2v1h-2v-1zM23,31h1v1h-1v-1zM17,31h5v1h-5v-1zM9,31h6v1h-6v-1zM6,31h1v1h-1v-1zM0,31h1v1h-1v-1zM32,30h2v1h-2v-1zM30,30h1v1h-1v-1zM28,30h1v1h-1v-1zM25,30h2v1h-2v-1zM23,30h1v1h-1v-1zM20,30h2v1h-2v-1zM17,30h1v1h-1v-1zM15,30h1v1h-1v-1zM8,30h3v1h-3v-1zM0,30h7v1h-7v-1zM34,29h1v1h-1v-1zM32,29h1v1h-1v-1zM25,29h4v1h-4v-1zM23,29h1v1h-1v-1zM19,29h1v1h-1v-1zM15,29h2v1h-2v-1zM8,29h5v1h-5v-1zM28,28h7v1h-7v-1zM26,28h1v1h-1v-1zM24,28h1v1h-1v-1zM21,28h2v1h-2v-1zM16,28h2v1h-2v-1zM11,28h4v1h-4v-1zM8,28h1v1h-1v-1zM5,28h2v1h-2v-1zM0,28h4v1h-4v-1zM34,27h2v1h-2v-1zM32,27h1v1h-1v-1zM29,27h2v1h-2v-1zM26,27h2v1h-2v-1zM23,27h2v1h-2v-1zM15,27h7v1h-7v-1zM11,27h3v1h-3v-1zM7,27h1v1h-1v-1zM3,27h2v1h-2v-1zM34,26h1v1h-1v-1zM30,26h2v1h-2v-1zM26,26h2v1h-2v-1zM21,26h3v1h-3v-1zM18,26h2v1h-2v-1zM15,26h1v1h-1v-1zM12,26h2v1h-2v-1zM6,26h1v1h-1v-1zM2,26h2v1h-2v-1zM34,25h1v1h-1v-1zM31,25h2v1h-2v-1zM27,25h3v1h-3v-1zM23,25h3v1h-3v-1zM21,25h1v1h-1v-1zM17,25h3v1h-3v-1zM14,25h1v1h-1v-1zM9,25h3v1h-3v-1zM7,25h1v1h-1v-1zM4,25h2v1h-2v-1zM0,25h3v1h-3v-1zM36,24h1v1h-1v-1zM33,24h2v1h-2v-1zM30,24h2v1h-2v-1zM28,24h1v1h-1v-1zM26,24h1v1h-1v-1zM19,24h5v1h-5v-1zM16,24h1v1h-1v-1zM11,24h2v1h-2v-1zM9,24h1v1h-1v-1zM4,24h3v1h-3v-1zM0,24h2v1h-2v-1zM36,23h1v1h-1v-1zM31,23h4v1h-4v-1zM29,23h1v1h-1v-1zM26,23h1v1h-1v-1zM23,23h1v1h-1v-1zM21,23h1v1h-1v-1zM19,23h1v1h-1v-1zM15,23h1v1h-1v-1zM13,23h1v1h-1v-1zM11,23h1v1h-1v-1zM8,23h2v1h-2v-1zM4,23h1v1h-1v-1zM0,23h1v1h-1v-1zM31,22h4v1h-4v-1zM27,22h3v1h-3v-1zM25,22h1v1h-1v-1zM22,22h2v1h-2v-1zM20,22h1v1h-1v-1zM18,22h1v1h-1v-1zM15,22h2v1h-2v-1zM10,22h2v1h-2v-1zM5,22h4v1h-4v-1zM3,22h1v1h-1v-1zM0,22h1v1h-1v-1zM35,21h1v1h-1v-1zM31,21h2v1h-2v-1zM27,21h1v1h-1v-1zM25,21h1v1h-1v-1zM23,21h1v1h-1v-1zM14,21h5v1h-5v-1zM10,21h2v1h-2v-1zM5,21h1v1h-1v-1zM3,21h1v1h-1v-1zM0,21h2v1h-2v-1zM34,20h1v1h-1v-1zM30,20h1v1h-1v-1zM28,20h1v1h-1v-1zM26,20h1v1h-1v-1zM21,20h2v1h-2v-1zM17,20h3v1h-3v-1zM15,20h1v1h-1v-1zM13,20h1v1h-1v-1zM6,20h4v1h-4v-1zM1,20h2v1h-2v-1zM34,19h2v1h-2v-1zM29,19h4v1h-4v-1zM27,19h1v1h-1v-1zM21,19h2v1h-2v-1zM17,19h2v1h-2v-1zM14,19h1v1h-1v-1zM12,19h1v1h-1v-1zM8,19h2v1h-2v-1zM4,19h1v1h-1v-1zM1,19h2v1h-2v-1zM32,18h2v1h-2v-1zM29,18h1v1h-1v-1zM26,18h2v1h-2v-1zM23,18h2v1h-2v-1zM20,18h2v1h-2v-1zM16,18h3v1h-3v-1zM13,18h2v1h-2v-1zM6,18h5v1h-5v-1zM3,18h2v1h-2v-1zM35,17h1v1h-1v-1zM32,17h2v1h-2v-1zM27,17h3v1h-3v-1zM25,17h1v1h-1v-1zM23,17h1v1h-1v-1zM19,17h2v1h-2v-1zM16,17h2v1h-2v-1zM14,17h1v1h-1v-1zM9,17h3v1h-3v-1zM7,17h1v1h-1v-1zM5,17h1v1h-1v-1zM0,17h4v1h-4v-1zM33,16h4v1h-4v-1zM29,16h2v1h-2v-1zM26,16h2v1h-2v-1zM24,16h1v1h-1v-1zM21,16h2v1h-2v-1zM18,16h1v1h-1v-1zM12,16h2v1h-2v-1zM10,16h1v1h-1v-1zM4,16h4v1h-4v-1zM1,16h1v1h-1v-1zM34,15h2v1h-2v-1zM27,15h3v1h-3v-1zM23,15h1v1h-1v-1zM21,15h1v1h-1v-1zM17,15h2v1h-2v-1zM14,15h2v1h-2v-1zM9,15h2v1h-2v-1zM7,15h1v1h-1v-1zM5,15h1v1h-1v-1zM3,15h1v1h-1v-1zM33,14h2v1h-2v-1zM25,14h7v1h-7v-1zM23,14h1v1h-1v-1zM20,14h2v1h-2v-1zM17,14h1v1h-1v-1zM12,14h4v1h-4v-1zM4,14h5v1h-5v-1zM2,14h1v1h-1v-1zM31,13h3v1h-3v-1zM29,13h1v1h-1v-1zM27,13h1v1h-1v-1zM22,13h4v1h-4v-1zM18,13h1v1h-1v-1zM16,13h1v1h-1v-1zM9,13h6v1h-6v-1zM7,13h1v1h-1v-1zM3,13h2v1h-2v-1zM0,13h2v1h-2v-1zM33,12h4v1h-4v-1zM30,12h1v1h-1v-1zM26,12h2v1h-2v-1zM24,12h1v1h-1v-1zM21,12h2v1h-2v-1zM17,12h1v1h-1v-1zM12,12h2v1h-2v-1zM10,12h1v1h-1v-1zM4,12h3v1h-3v-1zM0,12h3v1h-3v-1zM34,11h2v1h-2v-1zM27,11h2v1h-2v-1zM15,11h7v1h-7v-1zM11,11h3v1h-3v-1zM9,11h1v1h-1v-1zM7,11h1v1h-1v-1zM3,11h1v1h-1v-1zM0,11h1v1h-1v-1zM34,10h1v1h-1v-1zM29,10h2v1h-2v-1zM23,10h5v1h-5v-1zM17,10h3v1h-3v-1zM15,10h1v1h-1v-1zM11,10h2v1h-2v-1zM6,10h2v1h-2v-1zM0,10h4v1h-4v-1zM34,9h2v1h-2v-1zM32,9h1v1h-1v-1zM27,9h2v1h-2v-1zM21,9h3v1h-3v-1zM18,9h2v1h-2v-1zM14,9h1v1h-1v-1zM11,9h1v1h-1v-1zM7,9h3v1h-3v-1zM5,9h1v1h-1v-1zM0,9h3v1h-3v-1zM36,8h1v1h-1v-1zM29,8h5v1h-5v-1zM26,8h2v1h-2v-1zM23,8h2v1h-2v-1zM19,8h3v1h-3v-1zM14,8h3v1h-3v-1zM6,8h6v1h-6v-1zM4,8h1v1h-1v-1zM0,8h1v1h-1v-1zM26,7h1v1h-1v-1zM24,7h1v1h-1v-1zM21,7h2v1h-2v-1zM19,7h1v1h-1v-1zM14,7h1v1h-1v-1zM8,7h2v1h-2v-1zM30,6h7v1h-7v-1zM28,6h1v1h-1v-1zM26,6h1v1h-1v-1zM24,6h1v1h-1v-1zM22,6h1v1h-1v-1zM20,6h1v1h-1v-1zM18,6h1v1h-1v-1zM16,6h1v1h-1v-1zM14,6h1v1h-1v-1zM12,6h1v1h-1v-1zM10,6h1v1h-1v-1zM8,6h1v1h-1v-1zM0,6h7v1h-7v-1zM36,5h1v1h-1v-1zM30,5h1v1h-1v-1zM25,5h1v1h-1v-1zM19,5h1v1h-1v-1zM17,5h1v1h-1v-1zM14,5h2v1h-2v-1zM12,5h1v1h-1v-1zM8,5h1v1h-1v-1zM6,5h1v1h-1v-1zM0,5h1v1h-1v-1zM36,4h1v1h-1v-1zM32,4h3v1h-3v-1zM30,4h1v1h-1v-1zM26,4h2v1h-2v-1zM23,4h1v1h-1v-1zM21,4h1v1h-1v-1zM17,4h2v1h-2v-1zM11,4h5v1h-5v-1zM8,4h1v1h-1v-1zM6,4h1v1h-1v-1zM2,4h3v1h-3v-1zM0,4h1v1h-1v-1zM36,3h1v1h-1v-1zM32,3h3v1h-3v-1zM30,3h1v1h-1v-1zM27,3h1v1h-1v-1zM23,3h3v1h-3v-1zM20,3h1v1h-1v-1zM18,3h1v1h-1v-1zM16,3h1v1h-1v-1zM13,3h2v1h-2v-1zM8,3h4v1h-4v-1zM6,3h1v1h-1v-1zM2,3h3v1h-3v-1zM0,3h1v1h-1v-1zM36,2h1v1h-1v-1zM32,2h3v1h-3v-1zM30,2h1v1h-1v-1zM27,2h1v1h-1v-1zM21,2h2v1h-2v-1zM17,2h1v1h-1v-1zM11,2h4v1h-4v-1zM9,2h1v1h-1v-1zM6,2h1v1h-1v-1zM2,2h3v1h-3v-1zM0,2h1v1h-1v-1zM36,1h1v1h-1v-1zM30,1h1v1h-1v-1zM25,1h2v1h-2v-1zM21,1h2v1h-2v-1zM19,1h1v1h-1v-1zM14,1h1v1h-1v-1zM10,1h1v1h-1v-1zM6,1h1v1h-1v-1zM0,1h1v1h-1v-1zM30,0h7v1h-7v-1zM27,0h1v1h-1v-1zM22,0h4v1h-4v-1zM19,0h2v1h-2v-1zM14,0h1v1h-1v-1zM11,0h2v1h-2v-1zM8,0h1v1h-1v-1zM0,0h7v1h-7v-1z"/></svg>