<svg viewBox="0 0 45 45" width="256" height="256" fill="#000" shape-rendering="crispEdges" xmlns="http://www.w3.org/2000/svg" version="1.1"><path transform="matrix(1,0,0,1,4,4)" d="M36,36h1v1h-1v-1zM28,36h1v1h-1v-1zM23,36h1v1h-1v-1zM19,36h2v1h-2v-1zM16,36h1v1h-1v-1zM14,36h1v1h-1v-1zM10,36h1v1h-1v-1zM8,36h1v1h-1v-1zM0,36h7v1h-7v-1zM31,35h6v1h-6v-1zM26,35h2v1h-2v-1zM24,35h1v1h-1v-1zM22,35h1v1h-1v-1zM17,35h2v1h-2v-1zM15,35h1v1h-1v-1zM12,35h2v1h-2v-1zM9,35h1v1h-1v-1zM6,35h1v1h-1v-1zM0,35h1v1h-1v-1zM36,34h1v1h-1v-1zM32,34h2v1h-2v-1zM27,34h1v1h-1v-1zM25,34h1v1h-1v-1zM22,34h2v1h-2v-1zM20,34h1v1h-1v-1zM10,34h3v1h-3v-1zM6,34h1v1h-1v-1zM2,34h3v1h-3v-1zM0,34h1v1h-1v-1zM36,33h1v1h-1v-1zM33,33h2v1h-2v-1zM30,33h1v1h-1v-1zM27,33h2v1h-2v-1zM23,33h3v1h-3v-1zM20,33h2v1h-2v-1zM13,33h1v1h-1v-1zM8,33h3v1h-3v-1zM6,33h1v1h-1v-1zM2,33h3v1h-3v-1zM0,33h1v1h-1v-1zM36,32h1v1h-1v-1zM27,32h7v1h-7v-1zM22,32h1v1h-1v-1zM18,32h2v1h-2v-1zM16,32h1v1h-1v-1zM14,32h1v1h-1v-1zM12,32h1v1h-1v-1zM8,32h1v1h-1v-1zM6,32h1v1h-1v-1zM2,32h3v1h-3v-1zM0,32h1v1h-1v-1zM35,31h2v1h-2v-1zM32,31h1v1h-1v-1zM28,31h1v1h-1v-1zM24,31h3v1h-3v-1zM15,31h2v1h-2v-1zM8,31h3v1h-3v-1zM6,31h1v1h-1v-1zM0,31h1v1h-1v-1zM36,30h1v1h-1v-1zM32,30h2v1h-2v-1zM30,30h1v1h-1v-1zM28,30h1v1h-1v-1zM21,30h4v1h-4v-1zM17,30h3v1h-3v-1zM15,30h1v1h-1v-1zM12,30h1v1h-1v-1zM8,30h3v1h-3v-1zM0,30h7v1h-7v-1zM35,29h1v1h-1v-1zM32,29h1v1h-1v-1zM27,29h2v1h-2v-1zM22,29h1v1h-1v-1zM20,29h1v1h-1v-1zM17,29h1v1h-1v-1zM12,29h4v1h-4v-1zM8,29h1v1h-1v-1zM34,28h2v1h-2v-1zM22,28h11v1h-11v-1zM19,28h1v1h-1v-1zM14,28h3v1h-3v-1zM12,28h1v1h-1v-1zM6,28h4v1h-4v-1zM0,28h1v1h-1v-1zM36,27h1v1h-1v-1zM33,27h2v1h-2v-1zM19,27h1v1h-1v-1zM16,27h1v1h-1v-1zM11,27h4v1h-4v-1zM9,27h1v1h-1v-1zM4,27h2v1h-2v-1zM2,27h1v1h-1v-1zM0,27h1v1h-1v-1zM34,26h3v1h-3v-1zM29,26h1v1h-1v-1zM24,26h4v1h-4v-1zM21,26h2v1h-2v-1zM17,26h1v1h-1v-1zM15,26h1v1h-1v-1zM11,26h1v1h-1v-1zM8,26h1v1h-1v-1zM5,26h2v1h-2v-1zM0,26h2v1h-2v-1zM34,25h1v1h-1v-1zM31,25h2v1h-2v-1zM27,25h3v1h-3v-1zM21,25h5v1h-5v-1zM17,25h3v1h-3v-1zM14,25h1v1h-1v-1zM9,25h1v1h-1v-1zM4,25h1v1h-1v-1zM2,25h1v1h-1v-1zM0,25h1v1h-1v-1zM35,24h2v1h-2v-1zM29,24h3v1h-3v-1zM26,24h2v1h-2v-1zM22,24h1v1h-1v-1zM19,24h2v1h-2v-1zM17,24h1v1h-1v-1zM15,24h1v1h-1v-1zM12,24h1v1h-1v-1zM10,24h1v1h-1v-1zM6,24h1v1h-1v-1zM3,24h1v1h-1v-1zM0,24h2v1h-2v-1zM34,23h1v1h-1v-1zM29,23h4v1h-4v-1zM26,23h2v1h-2v-1zM23,23h2v1h-2v-1zM18,23h2v1h-2v-1zM11,23h2v1h-2v-1zM8,23h2v1h-2v-1zM3,23h2v1h-2v-1zM36,22h1v1h-1v-1zM33,22h1v1h-1v-1zM29,22h3v1h-3v-1zM23,22h5v1h-5v-1zM15,22h1v1h-1v-1zM11,22h2v1h-2v-1zM9,22h1v1h-1v-1zM2,22h6v1h-6v-1zM0,22h1v1h-1v-1zM34,21h2v1h-2v-1zM32,21h1v1h-1v-1zM27,21h2v1h-2v-1zM22,21h2v1h-2v-1zM17,21h3v1h-3v-1zM14,21h2v1h-2v-1zM11,21h1v1h-1v-1zM7,21h1v1h-1v-1zM3,21h3v1h-3v-1zM0,21h1v1h-1v-1zM32,20h2v1h-2v-1zM30,20h1v1h-1v-1zM27,20h1v1h-1v-1zM16,20h5v1h-5v-1zM13,20h2v1h-2v-1zM10,20h1v1h-1v-1zM6,20h1v1h-1v-1zM1,20h4v1h-4v-1zM36,19h1v1h-1v-1zM33,19h1v1h-1v-1zM28,19h1v1h-1v-1zM25,19h2v1h-2v-1zM23,19h1v1h-1v-1zM19,19h2v1h-2v-1zM15,19h2v1h-2v-1zM10,19h4v1h-4v-1zM7,19h2v1h-2v-1zM5,19h1v1h-1v-1zM3,19h1v1h-1v-1zM0,19h1v1h-1v-1zM36,18h1v1h-1v-1zM33,18h1v1h-1v-1zM29,18h3v1h-3v-1zM27,18h1v1h-1v-1zM23,18h3v1h-3v-1zM21,18h1v1h-1v-1zM19,18h1v1h-1v-1zM16,18h2v1h-2v-1zM9,18h3v1h-3v-1zM6,18h2v1h-2v-1zM4,18h1v1h-1v-1zM0,18h3v1h-3v-1zM33,17h2v1h-2v-1zM31,17h1v1h-1v-1zM26,17h2v1h-2v-1zM24,17h1v1h-1v-1zM12,17h2v1h-2v-1zM9,17h2v1h-2v-1zM7,17h1v1h-1v-1zM3,17h2v1h-2v-1zM0,17h2v1h-2v-1zM36,16h1v1h-1v-1zM34,16h1v1h-1v-1zM30,16h2v1h-2v-1zM25,16h2v1h-2v-1zM23,16h1v1h-1v-1zM17,16h3v1h-3v-1zM15,16h1v1h-1v-1zM11,16h2v1h-2v-1zM8,16h2v1h-2v-1zM6,16h1v1h-1v-1zM36,15h1v1h-1v-1zM32,15h3v1h-3v-1zM30,15h1v1h-1v-1zM28,15h1v1h-1v-1zM26,15h1v1h-1v-1zM24,15h1v1h-1v-1zM20,15h1v1h-1v-1zM11,15h3v1h-3v-1zM7,15h2v1h-2v-1zM4,15h2v1h-2v-1zM2,15h1v1h-1v-1zM0,15h1v1h-1v-1zM33,14h4v1h-4v-1zM26,14h3v1h-3v-1zM24,14h1v1h-1v-1zM18,14h4v1h-4v-1zM15,14h1v1h-1v-1zM10,14h2v1h-2v-1zM8,14h1v1h-1v-1zM6,14h1v1h-1v-1zM4,14h1v1h-1v-1zM2,14h1v1h-1v-1zM31,13h3v1h-3v-1zM29,13h1v1h-1v-1zM27,13h1v1h-1v-1zM22,13h4v1h-4v-1zM18,13h1v1h-1v-1zM16,13h1v1h-1v-1zM9,13h6v1h-6v-1zM7,13h1v1h-1v-1zM3,13h1v1h-1v-1zM0,13h2v1h-2v-1zM36,12h1v1h-1v-1zM28,12h3v1h-3v-1zM26,12h1v1h-1v-1zM23,12h2v1h-2v-1zM15,12h2v1h-2v-1zM12,12h2v1h-2v-1zM9,12h1v1h-1v-1zM6,12h1v1h-1v-1zM0,12h4v1h-4v-1zM33,11h4v1h-4v-1zM30,11h1v1h-1v-1zM28,11h1v1h-1v-1zM19,11h2v1h-2v-1zM16,11h2v1h-2v-1zM13,11h1v1h-1v-1zM7,11h2v1h-2v-1zM2,11h2v1h-2v-1zM36,10h1v1h-1v-1zM32,10h1v1h-1v-1zM27,10h3v1h-3v-1zM25,10h1v1h-1v-1zM22,10h2v1h-2v-1zM19,10h2v1h-2v-1zM14,10h4v1h-4v-1zM10,10h1v1h-1v-1zM6,10h3v1h-3v-1zM4,10h1v1h-1v-1zM1,10h1v1h-1v-1zM35,9h1v1h-1v-1zM31,9h2v1h-2v-1zM27,9h1v1h-1v-1zM23,9h3v1h-3v-1zM21,9h1v1h-1v-1zM18,9h1v1h-1v-1zM16,9h1v1h-1v-1zM13,9h2v1h-2v-1zM7,9h4v1h-4v-1zM4,9h1v1h-1v-1zM0,9h2v1h-2v-1zM34,8h3v1h-3v-1zM32,8h1v1h-1v-1zM28,8h2v1h-2v-1zM22,8h2v1h-2v-1zM19,8h1v1h-1v-1zM13,8h2v1h-2v-1zM11,8h1v1h-1v-1zM3,8h7v1h-7v-1zM0,8h1v1h-1v-1zM27,7h2v1h-2v-1zM25,7h1v1h-1v-1zM23,7h1v1h-1v-1zM20,7h1v1h-1v-1zM15,7h4v1h-4v-1zM11,7h3v1h-3v-1zM30,6h7v1h-7v-1zM28,6h1v1h-1v-1zM26,6h1v1h-1v-1zM24,6h1v1h-1v-1zM22,6h1v1h-1v-1zM20,6h1v1h-1v-1zM18,6h1v1h-1v-1zM16,6h1v1h-1v-1zM14,6h1v1h-1v-1zM12,6h1v1h-1v-1zM10,6h1v1h-1v-1zM8,6h1v1h-1v-1zM0,6h7v1h-7v-1zM36,5h1v1h-1v-1zM30,5h1v1h-1v-1zM28,5h1v1h-1v-1zM26,5h1v1h-1v-1zM23,5h1v1h-1v-1zM20,5h1v1h-1v-1zM15,5h2v1h-2v-1zM11,5h2v1h-2v-1zM9,5h1v1h-1v-1zM6,5h1v1h-1v-1zM0,5h1v1h-1v-1zM36,4h1v1h-1v-1zM32,4h3v1h-3v-1zM30,4h1v1h-1v-1zM25,4h2v1h-2v-1zM21,4h1v1h-1v-1zM18,4h2v1h-2v-1zM14,4h1v1h-1v-1zM12,4h1v1h-1v-1zM8,4h2v1h-2v-1zM6,4h1v1h-1v-1zM2,4h3v1h-3v-1zM0,4h1v1h-1v-1zM36,3h1v1h-1v-1zM32,3h3v1h-3v-1zM30,3h1v1h-1v-1zM25,3h2v1h-2v-1zM23,3h1v1h-1v-1zM21,3h1v1h-1v-1zM15,3h3v1h-3v-1zM12,3h2v1h-2v-1zM10,3h1v1h-1v-1zM6,3h1v1h-1v-1zM2,3h3v1h-3v-1zM0,3h1v1h-1v-1zM36,2h1v1h-1v-1zM32,2h3v1h-3v-1zM30,2h1v1h-1v-1zM27,2h1v1h-1v-1zM24,2h2v1h-2v-1zM21,2h2v1h-2v-1zM18,2h2v1h-2v-1zM16,2h1v1h-1v-1zM14,2h1v1h-1v-1zM11,2h1v1h-1v-1zM8,2h2v1h-2v-1zM6,2h1v1h-1v-1zM2,2h3v1h-3v-1zM0,2h1v1h-1v-1zM36,1h1v1h-1v-1zM30,1h1v1h-1v-1zM24,1h3v1h-3v-1zM21,1h2v1h-2v-1zM19,1h1v1h-1v-1zM16,1h1v1h-1v-1zM14,1h1v1h-1v-1zM12,1h1v1h-1v-1zM10,1h1v1h-1v-1zM8,1h1v1h-1v-1zM6,1h1v1h-1v-1zM0,1h1v1h-1v-1zM30,0h7v1h-7v-1zM28,0h1v1h-1v-1zM24,0h2v1h-2v-1zM19,0h3v1h-3v-1zM14,0h4v1h-4v-1zM8,0h2v1h-2v-1zM0,0h7v1h-7v-1z"/></svg>